<svg width="382" height="382" viewBox="0 0 382 382" fill="none" xmlns="http://www.w3.org/2000/svg">
<path d="M370.519 224.767H355.758L317.824 131.791C328.732 126.268 336.301 115.068 336.301 102.027C336.301 95.8595 331.31 90.8688 325.143 90.8688C318.975 90.8688 313.984 95.8595 313.984 102.027C313.984 108.183 308.983 113.185 302.826 113.185C297.018 113.185 294.163 111.05 288.246 106.223C280.313 99.7493 269.439 90.8688 247.035 90.8688C231.832 90.8688 221.662 95.0204 214.763 100.568C211.309 97.1494 207.07 94.589 202.402 92.9242V88.8135C215.362 84.1918 224.719 71.9222 224.719 57.3942C224.719 43.1303 207.731 15.9675 200.43 5.38651C196.246 -0.650078 186.243 -0.650078 182.059 5.38651C174.758 15.9675 157.77 43.1303 157.77 57.3942C157.77 71.9222 167.126 84.1918 180.086 88.8135V92.9242C175.418 94.589 171.18 97.1494 167.725 100.568C160.826 95.0204 150.657 90.8688 135.453 90.8688C113.05 90.8688 102.175 99.7493 94.2423 106.223C88.3255 111.05 85.4705 113.185 79.6623 113.185C73.5059 113.185 68.5041 108.183 68.5041 102.027C68.5041 95.8595 63.5134 90.8688 57.3459 90.8688C51.1784 90.8688 46.1877 95.8595 46.1877 102.027C46.1877 115.068 53.7567 126.268 64.6642 131.791L26.73 224.767H11.9692C5.80172 224.767 0.811035 229.758 0.811035 235.926C0.811035 266.687 25.8404 291.717 56.602 291.717H101.979C132.74 291.717 157.77 266.687 157.77 235.926C157.77 229.758 152.779 224.767 146.611 224.767H131.851L94.8426 132.246C100.317 129.83 104.665 126.527 108.353 123.516C115.142 117.969 121.004 113.185 135.453 113.185C155.83 113.185 157.628 122.6 157.77 124.616C157.771 124.695 157.816 124.759 157.82 124.837C158.033 139.146 167.277 151.195 180.086 155.762V316.832C167.126 321.453 157.77 333.723 157.77 348.251C157.77 354.407 152.768 359.409 146.611 359.409H124.295C118.128 359.409 113.137 364.4 113.137 370.567C113.137 376.735 118.128 381.725 124.295 381.725H258.193C264.361 381.725 269.352 376.735 269.352 370.567C269.352 364.4 264.361 359.409 258.193 359.409H235.877C229.721 359.409 224.719 354.407 224.719 348.251C224.719 333.723 215.362 321.453 202.402 316.832V155.763C215.228 151.189 224.482 139.117 224.674 124.785C224.677 124.74 224.705 124.704 224.708 124.66C224.839 122.752 226.495 113.185 247.035 113.185C261.484 113.185 267.347 117.969 274.135 123.516C277.824 126.527 282.172 129.83 287.646 132.246L250.638 224.767H235.877C229.71 224.767 224.719 229.758 224.719 235.926C224.719 266.687 249.748 291.717 280.51 291.717H325.886C356.648 291.717 381.677 266.687 381.677 235.926C381.677 229.758 376.687 224.767 370.519 224.767ZM50.7685 224.767L79.6623 154.391L107.812 224.767H50.7685ZM274.676 224.767L302.826 154.391L331.72 224.767H274.676Z" fill="#FAFAFA"/>
</svg>
