<svg width="59" height="59" viewBox="0 0 59 59" fill="none" xmlns="http://www.w3.org/2000/svg">
<circle cx="29.5" cy="29.5" r="29.5" fill="white"/>
<path d="M35.0411 16.3727C34.6854 13.88 32.5157 12 29.9943 12C28.3728 12 26.8329 12.7825 25.8754 14.0938C25.6798 14.3613 25.7383 14.7364 26.0058 14.932C26.2723 15.1269 26.6484 15.0691 26.8436 14.8013C27.5765 13.7985 28.7541 13.1996 29.9942 13.1996C31.9225 13.1996 33.5814 14.6366 33.8534 16.5419C33.8963 16.8412 34.153 17.0571 34.4466 17.0571C34.4746 17.0571 34.5034 17.055 34.532 17.0511C34.8599 17.0042 35.0878 16.7004 35.0411 16.3727Z" fill="#65C466"/>
<path d="M43.7035 23.087L41.9042 20.088C41.796 19.9072 41.6007 19.7969 41.3899 19.7969H39.6656C39.3345 19.7969 39.0659 20.0655 39.0659 20.3966C39.0659 20.7276 39.3345 20.9963 39.6656 20.9963H41.0504L42.13 22.7956H17.8582L18.9378 20.9963H19.573C19.904 20.9963 20.1727 20.7276 20.1727 20.3966C20.1727 20.0655 19.904 19.7969 19.573 19.7969H18.5983C18.3874 19.7969 18.1922 19.9072 18.084 20.088L16.2846 23.087C16.1734 23.2725 16.1708 23.5033 16.2771 23.6913C16.3834 23.8793 16.5826 23.9956 16.7989 23.9956H43.1892C43.4055 23.9956 43.6046 23.8793 43.7111 23.6913C43.8176 23.5033 43.8148 23.2722 43.7035 23.087Z" fill="#65C466"/>
<path d="M40.714 17.5568C40.63 17.4213 40.4959 17.3252 40.3409 17.289L32.1647 15.3766C32.0099 15.3403 31.8468 15.3673 31.7115 15.451C31.5765 15.535 31.4802 15.669 31.4441 15.824L30.8275 18.4598C30.7519 18.7822 30.9522 19.1048 31.2748 19.18C31.5973 19.2556 31.9202 19.0553 31.9954 18.7326L32.4755 16.6812L39.4836 18.3204L38.3824 23.0287C38.3068 23.3512 38.5071 23.6738 38.8298 23.749C38.876 23.7597 38.9218 23.7648 38.9672 23.7648C39.2395 23.7648 39.486 23.5782 39.5502 23.3018L40.7881 18.0096C40.8247 17.8548 40.7979 17.6917 40.714 17.5568Z" fill="#65C466"/>
<path d="M30.3116 18.9745L29.7651 14.3523C29.7465 14.1943 29.6658 14.05 29.5407 13.9516C29.4156 13.8532 29.2576 13.8083 29.099 13.8269L19.0673 15.0126C18.7386 15.0516 18.5034 15.3496 18.5423 15.6787L19.4534 23.3879C19.4896 23.6932 19.7484 23.9175 20.0483 23.9175C20.0717 23.9175 20.0958 23.916 20.1197 23.9133C20.4483 23.8743 20.6834 23.5763 20.6447 23.2472L19.8039 16.1332L28.6444 15.0883L29.1202 19.1149C29.1592 19.4438 29.4558 19.6775 29.7864 19.6403C30.1151 19.6016 30.3502 19.3034 30.3116 18.9745Z" fill="#65C466"/>
<path d="M35.0552 23.1677L33.8648 18.2171C33.8275 18.0627 33.7303 17.929 33.5949 17.8458C33.4594 17.7634 33.2968 17.7376 33.1413 17.7745L23.4792 20.0982C23.1571 20.1755 22.9589 20.4995 23.0362 20.8216L23.6312 23.296C23.7085 23.6185 24.0326 23.8168 24.3545 23.739C24.6766 23.6617 24.8748 23.3377 24.7975 23.0156L24.3425 21.1242L32.8384 19.0813L33.8886 23.4485C33.9545 23.7235 34.2005 23.908 34.4713 23.908C34.5179 23.908 34.565 23.9026 34.6122 23.8912C34.9343 23.8137 35.1325 23.4898 35.0552 23.1677Z" fill="#65C466"/>
<path d="M43.7891 23.3651C43.7725 23.0464 43.5093 22.7961 43.1899 22.7961H16.7996C16.4801 22.7961 16.2169 23.0462 16.2004 23.3651L15.0008 46.7564C14.9924 46.9206 15.0517 47.0812 15.1649 47.2003C15.2782 47.3193 15.4353 47.3869 15.5998 47.3869H44.3891C44.5534 47.3869 44.7107 47.3194 44.8246 47.2003C44.9375 47.0812 44.9969 46.9207 44.9887 46.7564L43.7891 23.3651ZM16.231 46.1873L17.3691 23.9956H42.6197L43.7578 46.1873H16.231Z" fill="#65C466"/>
<path d="M34.4927 25.1951C33.5004 25.1951 32.6934 26.0021 32.6934 26.9944C32.6934 27.9867 33.5004 28.7937 34.4927 28.7937C35.485 28.7937 36.292 27.9867 36.292 26.9944C36.292 26.0021 35.485 25.1951 34.4927 25.1951ZM34.4927 27.5943C34.1618 27.5943 33.893 27.3253 33.893 26.9946C33.893 26.6639 34.162 26.3949 34.4927 26.3949C34.8234 26.3949 35.0924 26.6639 35.0924 26.9946C35.0924 27.3253 34.8234 27.5943 34.4927 27.5943Z" fill="#65C466"/>
<path d="M25.4966 25.1951C24.5043 25.1951 23.6973 26.0021 23.6973 26.9944C23.6973 27.9867 24.5043 28.7937 25.4966 28.7937C26.4889 28.7937 27.2959 27.9867 27.2959 26.9944C27.2959 26.0021 26.4889 25.1951 25.4966 25.1951ZM25.4966 27.5943C25.1659 27.5943 24.8969 27.3253 24.8969 26.9946C24.8969 26.6639 25.1659 26.3949 25.4966 26.3949C25.8273 26.3949 26.0963 26.6639 26.0963 26.9946C26.0963 27.3253 25.8273 27.5943 25.4966 27.5943Z" fill="#65C466"/>
<path d="M34.4929 26.9944H34.4467C34.1156 26.9944 33.8469 27.2631 33.8469 27.5941C33.8469 27.676 33.8631 27.7542 33.8931 27.8253V30.8928C33.8931 33.0424 32.1442 34.7914 29.9945 34.7914C27.8448 34.7914 26.0959 33.0425 26.0959 30.8928V27.5943C26.0959 27.2632 25.8273 26.9946 25.4962 26.9946C25.1652 26.9946 24.8965 27.2632 24.8965 27.5943V30.893C24.8965 33.7041 27.1834 35.991 29.9945 35.991C32.8056 35.991 35.0926 33.7041 35.0926 30.893V27.5943C35.0926 27.2632 34.8239 26.9944 34.4929 26.9944Z" fill="#65C466"/>
</svg>
