<svg width="99" height="99" viewBox="0 0 99 99" fill="none" xmlns="http://www.w3.org/2000/svg">
<g filter="url(#filter0_d)">
<circle cx="49.5" cy="49.5" r="29.5" fill="white"/>
</g>
<path d="M55.0411 36.3727C54.6854 33.88 52.5157 32 49.9943 32C48.3728 32 46.8329 32.7825 45.8754 34.0938C45.6798 34.3613 45.7383 34.7364 46.0058 34.932C46.2723 35.1269 46.6484 35.0691 46.8436 34.8013C47.5765 33.7985 48.7541 33.1996 49.9942 33.1996C51.9225 33.1996 53.5814 34.6366 53.8534 36.5419C53.8963 36.8412 54.153 37.0571 54.4466 37.0571C54.4746 37.0571 54.5034 37.055 54.532 37.0511C54.8599 37.0042 55.0878 36.7004 55.0411 36.3727Z" fill="#65C466"/>
<path d="M63.7035 43.087L61.9042 40.088C61.796 39.9072 61.6007 39.7969 61.3899 39.7969H59.6656C59.3345 39.7969 59.0659 40.0655 59.0659 40.3966C59.0659 40.7276 59.3345 40.9963 59.6656 40.9963H61.0504L62.13 42.7956H37.8582L38.9378 40.9963H39.573C39.904 40.9963 40.1727 40.7276 40.1727 40.3966C40.1727 40.0655 39.904 39.7969 39.573 39.7969H38.5983C38.3874 39.7969 38.1922 39.9072 38.084 40.088L36.2846 43.087C36.1734 43.2725 36.1708 43.5033 36.2771 43.6913C36.3834 43.8793 36.5826 43.9956 36.7989 43.9956H63.1892C63.4055 43.9956 63.6046 43.8793 63.7111 43.6913C63.8176 43.5033 63.8148 43.2722 63.7035 43.087Z" fill="#65C466"/>
<path d="M60.714 37.5568C60.63 37.4213 60.4959 37.3252 60.3409 37.289L52.1647 35.3766C52.0099 35.3403 51.8468 35.3673 51.7115 35.451C51.5765 35.535 51.4802 35.669 51.4441 35.824L50.8275 38.4598C50.7519 38.7822 50.9522 39.1048 51.2748 39.18C51.5973 39.2556 51.9202 39.0553 51.9954 38.7326L52.4755 36.6812L59.4836 38.3204L58.3824 43.0287C58.3068 43.3512 58.5071 43.6738 58.8298 43.749C58.876 43.7597 58.9218 43.7648 58.9672 43.7648C59.2395 43.7648 59.486 43.5782 59.5502 43.3018L60.7881 38.0096C60.8247 37.8548 60.7979 37.6917 60.714 37.5568Z" fill="#65C466"/>
<path d="M50.3116 38.9745L49.7651 34.3523C49.7465 34.1943 49.6658 34.05 49.5407 33.9516C49.4156 33.8532 49.2576 33.8083 49.099 33.8269L39.0673 35.0126C38.7386 35.0516 38.5034 35.3496 38.5423 35.6787L39.4534 43.3879C39.4896 43.6932 39.7484 43.9175 40.0483 43.9175C40.0717 43.9175 40.0958 43.916 40.1197 43.9133C40.4483 43.8743 40.6834 43.5763 40.6447 43.2472L39.8039 36.1332L48.6444 35.0883L49.1202 39.1149C49.1592 39.4438 49.4558 39.6775 49.7864 39.6403C50.1151 39.6016 50.3502 39.3034 50.3116 38.9745Z" fill="#65C466"/>
<path d="M55.0552 43.1677L53.8648 38.2171C53.8275 38.0627 53.7303 37.929 53.5949 37.8458C53.4594 37.7634 53.2968 37.7376 53.1413 37.7745L43.4792 40.0982C43.1571 40.1755 42.9589 40.4995 43.0362 40.8216L43.6312 43.296C43.7085 43.6185 44.0326 43.8168 44.3545 43.739C44.6766 43.6617 44.8748 43.3377 44.7975 43.0156L44.3425 41.1242L52.8384 39.0813L53.8886 43.4485C53.9545 43.7235 54.2005 43.908 54.4713 43.908C54.5179 43.908 54.565 43.9026 54.6122 43.8912C54.9343 43.8137 55.1325 43.4898 55.0552 43.1677Z" fill="#65C466"/>
<path d="M63.7891 43.3651C63.7725 43.0464 63.5093 42.7961 63.1899 42.7961H36.7996C36.4801 42.7961 36.2169 43.0462 36.2004 43.3651L35.0008 66.7564C34.9924 66.9206 35.0517 67.0812 35.1649 67.2003C35.2782 67.3193 35.4353 67.3869 35.5998 67.3869H64.3891C64.5534 67.3869 64.7107 67.3194 64.8246 67.2003C64.9375 67.0812 64.9969 66.9207 64.9887 66.7564L63.7891 43.3651ZM36.231 66.1873L37.3691 43.9956H62.6197L63.7578 66.1873H36.231Z" fill="#65C466"/>
<path d="M54.4927 45.1951C53.5004 45.1951 52.6934 46.0021 52.6934 46.9944C52.6934 47.9867 53.5004 48.7937 54.4927 48.7937C55.485 48.7937 56.292 47.9867 56.292 46.9944C56.292 46.0021 55.485 45.1951 54.4927 45.1951ZM54.4927 47.5943C54.1618 47.5943 53.893 47.3253 53.893 46.9946C53.893 46.6639 54.162 46.3949 54.4927 46.3949C54.8234 46.3949 55.0924 46.6639 55.0924 46.9946C55.0924 47.3253 54.8234 47.5943 54.4927 47.5943Z" fill="#65C466"/>
<path d="M45.4966 45.1951C44.5043 45.1951 43.6973 46.0021 43.6973 46.9944C43.6973 47.9867 44.5043 48.7937 45.4966 48.7937C46.4889 48.7937 47.2959 47.9867 47.2959 46.9944C47.2959 46.0021 46.4889 45.1951 45.4966 45.1951ZM45.4966 47.5943C45.1659 47.5943 44.8969 47.3253 44.8969 46.9946C44.8969 46.6639 45.1659 46.3949 45.4966 46.3949C45.8273 46.3949 46.0963 46.6639 46.0963 46.9946C46.0963 47.3253 45.8273 47.5943 45.4966 47.5943Z" fill="#65C466"/>
<path d="M54.4929 46.9944H54.4467C54.1156 46.9944 53.8469 47.2631 53.8469 47.5941C53.8469 47.676 53.8631 47.7542 53.8931 47.8253V50.8928C53.8931 53.0424 52.1442 54.7914 49.9945 54.7914C47.8448 54.7914 46.0959 53.0425 46.0959 50.8928V47.5943C46.0959 47.2632 45.8273 46.9946 45.4962 46.9946C45.1652 46.9946 44.8965 47.2632 44.8965 47.5943V50.893C44.8965 53.7041 47.1834 55.991 49.9945 55.991C52.8056 55.991 55.0926 53.7041 55.0926 50.893V47.5943C55.0926 47.2632 54.8239 46.9944 54.4929 46.9944Z" fill="#65C466"/>
<defs>
<filter id="filter0_d" x="0" y="0" width="99" height="99" filterUnits="userSpaceOnUse" color-interpolation-filters="sRGB">
<feFlood flood-opacity="0" result="BackgroundImageFix"/>
<feColorMatrix in="SourceAlpha" type="matrix" values="0 0 0 0 0 0 0 0 0 0 0 0 0 0 0 0 0 0 127 0" result="hardAlpha"/>
<feOffset/>
<feGaussianBlur stdDeviation="10"/>
<feColorMatrix type="matrix" values="0 0 0 0 0.870833 0 0 0 0 0.870833 0 0 0 0 0.870833 0 0 0 1 0"/>
<feBlend mode="normal" in2="BackgroundImageFix" result="effect1_dropShadow"/>
<feBlend mode="normal" in="SourceGraphic" in2="effect1_dropShadow" result="shape"/>
</filter>
</defs>
</svg>
