<svg width="21" height="21" viewBox="0 0 21 21" fill="none" xmlns="http://www.w3.org/2000/svg">
<path d="M17.7947 13.1278C16.6887 12.0219 15.3724 11.2032 13.9362 10.7076C15.4744 9.64818 16.485 7.8751 16.485 5.87019C16.485 2.63338 13.8516 0 10.6148 0C7.37797 0 4.74459 2.63338 4.74459 5.87019C4.74459 7.8751 5.75518 9.64818 7.29344 10.7076C5.85723 11.2032 4.54088 12.0219 3.43494 13.1278C1.51714 15.0457 0.460938 17.5955 0.460938 20.3077H2.04748C2.04748 15.5837 5.89075 11.7404 10.6148 11.7404C15.3388 11.7404 19.1821 15.5837 19.1821 20.3077H20.7686C20.7686 17.5955 19.7124 15.0457 17.7947 13.1278ZM10.6148 10.1538C8.25278 10.1538 6.33113 8.23223 6.33113 5.87019C6.33113 3.50815 8.25278 1.58654 10.6148 1.58654C12.9768 1.58654 14.8984 3.50815 14.8984 5.87019C14.8984 8.23223 12.9768 10.1538 10.6148 10.1538Z" fill="white"/>
</svg>
