<svg width="33" height="33" viewBox="0 0 33 33" fill="none" xmlns="http://www.w3.org/2000/svg">
<path d="M32.9545 32.2305L29.8497 25.1108C29.682 24.6087 29.281 24.2148 28.7761 24.0575L20.7428 21.5012L19.8826 19.3506L22.4225 16.3026C22.505 16.203 22.5501 16.0787 22.5501 15.95V14.85H23.1001C24.0098 14.85 24.7501 14.1097 24.7501 13.2V11C24.7501 10.0903 24.0098 9.35 23.1001 9.35H22.5501V8.8H23.1001C23.2525 8.8 23.3988 8.73675 23.5022 8.6251C23.6061 8.51345 23.6595 8.3633 23.6485 8.21095L23.2448 2.5542C23.1425 1.122 21.938 0 20.5014 0H12.6501C11.1338 0 9.90013 1.23365 9.90013 2.75V8.25C9.90013 8.5536 10.146 8.8 10.4501 8.8V9.35H9.90013C8.99043 9.35 8.25013 10.0903 8.25013 11V13.2C8.25013 14.1097 8.99043 14.85 9.90013 14.85H10.4501V15.95C10.4501 16.0787 10.4952 16.203 10.5772 16.302L13.1077 19.3391L12.104 21.5946L9.33198 22.4609L4.22358 24.0575C3.71868 24.2148 3.31773 24.6087 3.16758 25.0651L0.0457806 32.2305C-0.0284694 32.4005 -0.0114194 32.5968 0.0897806 32.7514C0.192081 32.9065 0.364781 33 0.550131 33H32.4501C32.6355 33 32.8082 32.9065 32.9105 32.7514C33.0117 32.5963 33.0287 32.4005 32.9545 32.2305ZM22.5501 10.45H23.1001C23.4037 10.45 23.6501 10.6969 23.6501 11V13.2C23.6501 13.503 23.4037 13.75 23.1001 13.75H22.5501V10.45ZM10.4501 13.75H9.90013C9.59653 13.75 9.35013 13.503 9.35013 13.2V11C9.35013 10.6969 9.59653 10.45 9.90013 10.45H10.4501V13.75ZM20.5091 22.6264L22.4764 23.2414L18.9267 26.1706L17.4769 24.3589L20.5091 22.6264ZM17.9631 26.9093L16.5001 28.3723L15.0371 26.9093L16.5001 25.0805L17.9631 26.9093ZM13.2557 21.7129L14.0372 19.9573L16.2955 20.8609C16.3615 20.8868 16.4308 20.9 16.5001 20.9C16.5694 20.9 16.6387 20.8868 16.7042 20.8609L18.9438 19.965L19.6615 21.7602L16.5001 23.5664L13.2557 21.7129ZM11.0001 2.75C11.0001 1.8403 11.7404 1.1 12.6501 1.1H20.5014C21.3627 1.1 22.0859 1.7732 22.1475 2.6323L22.5094 7.7H21.4501H18.7001C16.1454 7.7 14.8501 6.7749 14.8501 4.95C14.8501 4.6464 14.6043 4.4 14.3001 4.4C13.996 4.4 13.7501 4.6464 13.7501 4.95C13.7501 6.46635 12.5165 7.7 11.0001 7.7V2.75ZM11.5501 15.7509V8.7582C12.7051 8.5921 13.6973 7.91285 14.2842 6.95805C15.0349 8.14825 16.5562 8.8 18.7001 8.8H21.4501V15.7509L18.9168 18.7907L16.5001 19.7576L14.0834 18.7913L11.5501 15.7509ZM12.5099 22.6199L15.663 24.3655L14.2193 26.1701L10.6294 23.2078L12.5099 22.6199ZM13.8711 31.9H1.38943L4.19443 25.4578C4.24998 25.2906 4.38363 25.1597 4.55138 25.1069L9.37543 23.5994L13.9311 27.3592L14.7907 28.2189L13.8711 31.9ZM15.0047 31.9L15.6977 29.1258L16.1107 29.5388C16.2185 29.6461 16.3593 29.7 16.5001 29.7C16.6409 29.7 16.7817 29.6461 16.889 29.5388L17.302 29.1258L17.9956 31.9H15.0047ZM19.1291 31.9L18.209 28.2189L18.9449 27.483C19.0362 27.4659 19.1236 27.4345 19.1962 27.3746L23.7304 23.6329L23.968 23.7072L22.0282 29.5262C21.9693 29.7033 22.0034 29.898 22.12 30.0438L23.605 31.9H19.1291ZM23.1667 29.59L25.018 24.035L25.9035 24.3116L26.3809 30.0415L24.7958 31.6266L23.1667 29.59ZM26.0778 31.9L27.339 30.6388C27.4534 30.5244 27.5111 30.3655 27.4979 30.2044L27.0365 24.6658L28.4489 25.1069C28.6172 25.1592 28.7508 25.2901 28.824 25.5035L31.6108 31.9H26.0778Z" fill="white"/>
</svg>
