<svg width="41" height="42" viewBox="0 0 41 42" fill="none" xmlns="http://www.w3.org/2000/svg">
<path d="M20.6329 0.822266C9.52889 0.822266 0.527344 9.82381 0.527344 20.9278C0.527344 32.0317 9.52889 41.0333 20.6329 41.0333C31.7368 41.0333 40.7384 32.0317 40.7384 20.9278C40.7384 9.82381 31.7369 0.822266 20.6329 0.822266ZM30.3162 21.889C30.2828 21.9261 30.2474 21.9614 30.2103 21.9948L15.8492 34.9198C15.2494 35.4388 14.3424 35.3733 13.8235 34.7735C13.319 34.1904 13.365 33.313 13.9277 32.7858L27.1026 20.9279L13.9277 9.06986C13.3488 8.52761 13.3192 7.61882 13.8615 7.03998C14.3886 6.47729 15.2661 6.43126 15.8492 6.9358L30.2103 19.8608C30.7996 20.3916 30.847 21.2997 30.3162 21.889Z" fill="#65C466"/>
</svg>
