<svg width="99" height="99" viewBox="0 0 99 99" fill="none" xmlns="http://www.w3.org/2000/svg">
<g filter="url(#filter0_d)">
<circle cx="49.5" cy="49.5" r="29.5" fill="white"/>
</g>
<path d="M66.2963 36H36.4815C35.0496 36 33.8889 37.1608 33.8889 38.5926V59.3334H30.6481C30.2902 59.3334 30 59.6236 30 59.9815C30 61.4133 31.1608 62.5741 32.5926 62.5741H51.3889V70.3519C51.389 70.7098 51.6792 70.9999 52.0372 70.9999C52.2091 70.9999 52.3738 70.9316 52.4953 70.8101L55.9259 67.3795L59.3566 70.8101C59.4781 70.9316 59.6429 71 59.8148 71C59.9001 71.0003 59.9844 70.9836 60.0631 70.9508C60.3052 70.8504 60.4631 70.614 60.463 70.3519V62.5741H62.4074C63.8393 62.5741 65 61.4133 65 59.9815V39.2407H68.2408C68.5987 39.2407 68.8889 38.9505 68.8889 38.5926C68.8889 37.1608 67.7282 36 66.2963 36ZM63.7037 38.5926V59.3334H61.1111V60.6296H63.5294C63.2979 61.0305 62.8703 61.2776 62.4074 61.2778H60.463V60.6296H59.1667V68.7872L56.3842 66.0047C56.1311 65.7517 55.7208 65.7517 55.4677 66.0047L52.6852 68.7872V60.6296H51.3889V61.2778H32.5926C32.1297 61.2776 31.7021 61.0305 31.4706 60.6296H34.537H50.7408V59.3334H35.1852V38.5926C35.1852 37.8766 35.7655 37.2963 36.4815 37.2963H64.0641C63.8308 37.6887 63.7064 38.1361 63.7037 38.5926ZM65.1744 37.9444C65.533 37.3248 66.326 37.1132 66.9457 37.4719C67.1418 37.5854 67.3048 37.7484 67.4183 37.9444H65.1744Z" fill="#65C466"/>
<path d="M62.0355 56.2837L61.2053 54.7962L62.0388 53.31C62.2144 52.998 62.104 52.6028 61.7922 52.4272C61.7765 52.4183 61.7603 52.4101 61.7439 52.4025L60.1968 51.6941L59.9971 50.0025C59.9549 49.647 59.6325 49.3931 59.277 49.4353C59.2605 49.4373 59.2441 49.4399 59.2278 49.4431L57.5568 49.7743L56.4012 48.5227C56.1425 48.26 55.7198 48.2567 55.4571 48.5154C55.4546 48.5178 55.4521 48.5203 55.4497 48.5227L54.2941 49.7743L52.6231 49.4431C52.272 49.3737 51.931 49.6021 51.8616 49.9532C51.8583 49.9695 51.8557 49.9859 51.8538 50.0025L51.6542 51.6941L50.107 52.4038C49.7816 52.5528 49.6385 52.9375 49.7875 53.263C49.795 53.2794 49.8032 53.2955 49.8121 53.3113L50.6456 54.7962L49.8121 56.2824C49.6365 56.5943 49.7469 56.9895 50.0587 57.1651C50.0745 57.174 50.0906 57.1822 50.107 57.1898L51.6542 57.8995L51.8538 59.5925C51.896 59.9479 52.2184 60.2018 52.5739 60.1596C52.5904 60.1576 52.6068 60.1551 52.6231 60.1518L54.2941 59.8206L55.4497 61.0722C55.6928 61.3349 56.1029 61.3508 56.3656 61.1078C56.3779 61.0963 56.3898 61.0845 56.4012 61.0722L57.5568 59.8206L59.2278 60.1518C59.4049 60.188 59.589 60.1475 59.7346 60.0403C59.8795 59.9335 59.9734 59.7713 59.9939 59.5925L60.1935 57.9008L61.7406 57.1911C62.0661 57.0421 62.2092 56.6574 62.0602 56.332C62.0526 56.3155 62.0444 56.2994 62.0355 56.2837ZM59.8973 55.1125L60.5643 56.3025L59.325 56.8709C59.1195 56.9652 58.9781 57.1597 58.9517 57.3842L58.7922 58.7408L57.4525 58.4757C57.2317 58.4298 57.0032 58.5037 56.851 58.6701L55.9255 59.6735L54.9999 58.6714C54.8772 58.5388 54.7048 58.4634 54.5242 58.4634C54.4819 58.4631 54.4397 58.4675 54.3984 58.4764L53.0587 58.7414L52.8992 57.3849C52.8728 57.1604 52.7314 56.9658 52.5259 56.8715L51.2867 56.3031L51.9536 55.1131C52.0651 54.9154 52.0678 54.6754 51.9536 54.4792V54.4818L51.2867 53.2918L52.5259 52.7234C52.7314 52.6291 52.8728 52.4346 52.8992 52.21L53.0587 50.8535L54.3984 51.1186C54.6191 51.1639 54.8474 51.09 54.9999 50.9241L55.9255 49.9188L56.851 50.9209C57.0031 51.0874 57.2317 51.1613 57.4525 51.1153L58.7922 50.8502L58.9517 52.2068C58.9781 52.4313 59.1195 52.6258 59.325 52.7201L60.5643 53.2886L59.8973 54.4786C59.787 54.6754 59.787 54.9156 59.8973 55.1125Z" fill="#65C466"/>
<path d="M55.9263 51.5557C54.1365 51.5557 52.6855 53.0066 52.6855 54.7964C52.6877 56.5853 54.1374 58.035 55.9263 58.0372C57.7161 58.0372 59.167 56.5862 59.167 54.7964C59.167 53.0066 57.7161 51.5557 55.9263 51.5557ZM55.9263 56.7409C54.8524 56.7409 53.9818 55.8703 53.9818 54.7964C53.9818 53.7225 54.8524 52.852 55.9263 52.852C57.0002 52.852 57.8707 53.7225 57.8707 54.7964C57.8707 55.8703 57.0002 56.7409 55.9263 56.7409Z" fill="#65C466"/>
<path d="M54.6301 39.8889H44.2598V41.1852H54.6301V39.8889Z" fill="#65C466"/>
<path d="M61.1107 43.7776H37.7773V45.0739H61.1107V43.7776Z" fill="#65C466"/>
<path d="M61.1107 46.3704H37.7773V47.6667H61.1107V46.3704Z" fill="#65C466"/>
<path d="M46.8517 54.7964H38.4258V56.0927H46.8517V54.7964Z" fill="#65C466"/>
<defs>
<filter id="filter0_d" x="0" y="0" width="99" height="99" filterUnits="userSpaceOnUse" color-interpolation-filters="sRGB">
<feFlood flood-opacity="0" result="BackgroundImageFix"/>
<feColorMatrix in="SourceAlpha" type="matrix" values="0 0 0 0 0 0 0 0 0 0 0 0 0 0 0 0 0 0 127 0" result="hardAlpha"/>
<feOffset/>
<feGaussianBlur stdDeviation="10"/>
<feColorMatrix type="matrix" values="0 0 0 0 0.870833 0 0 0 0 0.870833 0 0 0 0 0.870833 0 0 0 1 0"/>
<feBlend mode="normal" in2="BackgroundImageFix" result="effect1_dropShadow"/>
<feBlend mode="normal" in="SourceGraphic" in2="effect1_dropShadow" result="shape"/>
</filter>
</defs>
</svg>
