<svg width="59" height="59" viewBox="0 0 59 59" fill="none" xmlns="http://www.w3.org/2000/svg">
<circle cx="29.5" cy="29.5" r="29.5" fill="white"/>
<path d="M46.2963 16H16.4815C15.0496 16 13.8889 17.1608 13.8889 18.5926V39.3334H10.6481C10.2902 39.3334 10 39.6236 10 39.9815C10 41.4133 11.1608 42.5741 12.5926 42.5741H31.3889V50.3519C31.389 50.7098 31.6792 50.9999 32.0372 50.9999C32.2091 50.9999 32.3738 50.9316 32.4953 50.8101L35.9259 47.3795L39.3566 50.8101C39.4781 50.9316 39.6429 51 39.8148 51C39.9001 51.0003 39.9844 50.9836 40.0631 50.9508C40.3052 50.8504 40.4631 50.614 40.463 50.3519V42.5741H42.4074C43.8393 42.5741 45 41.4133 45 39.9815V19.2407H48.2408C48.5987 19.2407 48.8889 18.9505 48.8889 18.5926C48.8889 17.1608 47.7282 16 46.2963 16ZM43.7037 18.5926V39.3334H41.1111V40.6296H43.5294C43.2979 41.0305 42.8703 41.2776 42.4074 41.2778H40.463V40.6296H39.1667V48.7872L36.3842 46.0047C36.1311 45.7517 35.7208 45.7517 35.4677 46.0047L32.6852 48.7872V40.6296H31.3889V41.2778H12.5926C12.1297 41.2776 11.7021 41.0305 11.4706 40.6296H14.537H30.7408V39.3334H15.1852V18.5926C15.1852 17.8766 15.7655 17.2963 16.4815 17.2963H44.0641C43.8308 17.6887 43.7064 18.1361 43.7037 18.5926ZM45.1744 17.9444C45.533 17.3248 46.326 17.1132 46.9457 17.4719C47.1418 17.5854 47.3048 17.7484 47.4183 17.9444H45.1744Z" fill="#65C466"/>
<path d="M42.0355 36.2837L41.2053 34.7962L42.0388 33.31C42.2144 32.998 42.104 32.6028 41.7922 32.4272C41.7765 32.4183 41.7603 32.4101 41.7439 32.4025L40.1968 31.6941L39.9971 30.0025C39.9549 29.647 39.6325 29.3931 39.277 29.4353C39.2605 29.4373 39.2441 29.4399 39.2278 29.4431L37.5568 29.7743L36.4012 28.5227C36.1425 28.26 35.7198 28.2567 35.4571 28.5154C35.4546 28.5178 35.4521 28.5203 35.4497 28.5227L34.2941 29.7743L32.6231 29.4431C32.272 29.3737 31.931 29.6021 31.8616 29.9532C31.8583 29.9695 31.8557 29.9859 31.8538 30.0025L31.6542 31.6941L30.107 32.4038C29.7816 32.5528 29.6385 32.9375 29.7875 33.263C29.795 33.2794 29.8032 33.2955 29.8121 33.3113L30.6456 34.7962L29.8121 36.2824C29.6365 36.5943 29.7469 36.9895 30.0587 37.1651C30.0745 37.174 30.0906 37.1822 30.107 37.1898L31.6542 37.8995L31.8538 39.5925C31.896 39.9479 32.2184 40.2018 32.5739 40.1596C32.5904 40.1576 32.6068 40.1551 32.6231 40.1518L34.2941 39.8206L35.4497 41.0722C35.6928 41.3349 36.1029 41.3508 36.3656 41.1078C36.3779 41.0963 36.3898 41.0845 36.4012 41.0722L37.5568 39.8206L39.2278 40.1518C39.4049 40.188 39.589 40.1475 39.7346 40.0403C39.8795 39.9335 39.9734 39.7713 39.9939 39.5925L40.1935 37.9008L41.7406 37.1911C42.0661 37.0421 42.2092 36.6574 42.0602 36.332C42.0526 36.3155 42.0444 36.2994 42.0355 36.2837ZM39.8973 35.1125L40.5643 36.3025L39.325 36.8709C39.1195 36.9652 38.9781 37.1597 38.9517 37.3842L38.7922 38.7408L37.4525 38.4757C37.2317 38.4298 37.0032 38.5037 36.851 38.6701L35.9255 39.6735L34.9999 38.6714C34.8772 38.5388 34.7048 38.4634 34.5242 38.4634C34.4819 38.4631 34.4397 38.4675 34.3984 38.4764L33.0587 38.7414L32.8992 37.3849C32.8728 37.1604 32.7314 36.9658 32.5259 36.8715L31.2867 36.3031L31.9536 35.1131C32.0651 34.9154 32.0678 34.6754 31.9536 34.4792V34.4818L31.2867 33.2918L32.5259 32.7234C32.7314 32.6291 32.8728 32.4346 32.8992 32.21L33.0587 30.8535L34.3984 31.1186C34.6191 31.1639 34.8474 31.09 34.9999 30.9241L35.9255 29.9188L36.851 30.9209C37.0031 31.0874 37.2317 31.1613 37.4525 31.1153L38.7922 30.8502L38.9517 32.2068C38.9781 32.4313 39.1195 32.6258 39.325 32.7201L40.5643 33.2886L39.8973 34.4786C39.787 34.6754 39.787 34.9156 39.8973 35.1125Z" fill="#65C466"/>
<path d="M35.9263 31.5557C34.1365 31.5557 32.6855 33.0066 32.6855 34.7964C32.6877 36.5853 34.1374 38.035 35.9263 38.0372C37.7161 38.0372 39.167 36.5862 39.167 34.7964C39.167 33.0066 37.7161 31.5557 35.9263 31.5557ZM35.9263 36.7409C34.8524 36.7409 33.9818 35.8703 33.9818 34.7964C33.9818 33.7225 34.8524 32.852 35.9263 32.852C37.0002 32.852 37.8707 33.7225 37.8707 34.7964C37.8707 35.8703 37.0002 36.7409 35.9263 36.7409Z" fill="#65C466"/>
<path d="M34.6301 19.8889H24.2598V21.1852H34.6301V19.8889Z" fill="#65C466"/>
<path d="M41.1107 23.7776H17.7773V25.0739H41.1107V23.7776Z" fill="#65C466"/>
<path d="M41.1107 26.3704H17.7773V27.6667H41.1107V26.3704Z" fill="#65C466"/>
<path d="M26.8517 34.7964H18.4258V36.0927H26.8517V34.7964Z" fill="#65C466"/>
</svg>
