<svg width="16" height="17" viewBox="0 0 16 17" fill="none" xmlns="http://www.w3.org/2000/svg">
<path d="M12.5485 11.4435C11.7645 11.3063 11.0162 11.0489 10.3289 10.6801C9.99283 10.4956 9.53384 10.5306 9.27646 10.7164L7.64636 11.5513C6.13262 10.3676 5.28407 9.15936 4.69503 7.3482L5.99545 6.13057C6.31745 5.90484 6.48575 5.52222 6.43364 5.12644C6.31992 4.35076 6.33163 3.55981 6.46893 2.77549C6.56816 2.2089 6.1879 1.66725 5.62133 1.56806L3.26971 1.15638C2.70314 1.0572 2.16149 1.43746 2.06231 2.00402C0.925395 8.49836 5.28389 14.7067 11.7782 15.8436C12.3448 15.9428 12.8864 15.5625 12.9856 14.996L13.3961 12.6509C13.4953 12.0844 13.115 11.5427 12.5485 11.4435Z" fill="white"/>
</svg>
