<svg width="99" height="99" viewBox="0 0 99 99" fill="none" xmlns="http://www.w3.org/2000/svg">
<g filter="url(#filter0_d)">
<circle cx="49.5" cy="49.5" r="29.5" fill="white"/>
</g>
<path d="M50.0001 47.3489C52.1971 47.3489 53.9844 45.5615 53.9844 43.3645C53.9844 41.1675 52.1971 39.3801 50.0001 39.3801C47.8031 39.3801 46.0156 41.1675 46.0156 43.3645C46.0156 45.5615 47.8031 47.3489 50.0001 47.3489ZM50.0001 41.3723C51.0986 41.3723 51.9922 42.266 51.9922 43.3645C51.9922 44.463 51.0986 45.3567 50.0001 45.3567C48.9016 45.3567 48.0078 44.463 48.0078 43.3645C48.0078 42.266 48.9016 41.3723 50.0001 41.3723Z" fill="#65C466"/>
<path d="M62.6741 53.9102H56.0075C59.1204 50.9388 61.9528 48.0262 61.9528 42.9531C61.9528 36.1178 56.8203 31 49.9998 31C43.1656 31 38.0466 36.133 38.0466 42.9531C38.0466 48.0262 40.8791 50.9388 43.9921 53.9102H37.3253L33.6826 65H66.3168L62.6741 53.9102ZM40.0388 42.9531C40.0388 37.1814 44.228 32.9922 49.9998 32.9922C55.7715 32.9922 59.9606 37.1814 59.9606 42.9531C59.9606 49.4103 54.5103 51.6974 49.9998 57.2586C48.6443 55.5874 47.1947 54.2079 45.785 52.8667C42.5745 49.812 40.0388 47.3991 40.0388 42.9531ZM37.241 60.5508H44.4216V58.5586H37.8954L38.7679 55.9023H46.0153V55.8576C48.6613 58.4815 49.3772 59.7966 49.9998 60.5808C50.6379 59.7771 51.3303 58.4894 53.9841 55.8577V55.9023H61.2316L62.1041 58.5586H55.5778V60.5508H62.7584L63.5654 63.0078H36.434L37.241 60.5508Z" fill="#65C466"/>
<defs>
<filter id="filter0_d" x="0" y="0" width="99" height="99" filterUnits="userSpaceOnUse" color-interpolation-filters="sRGB">
<feFlood flood-opacity="0" result="BackgroundImageFix"/>
<feColorMatrix in="SourceAlpha" type="matrix" values="0 0 0 0 0 0 0 0 0 0 0 0 0 0 0 0 0 0 127 0" result="hardAlpha"/>
<feOffset/>
<feGaussianBlur stdDeviation="10"/>
<feColorMatrix type="matrix" values="0 0 0 0 0.870833 0 0 0 0 0.870833 0 0 0 0 0.870833 0 0 0 1 0"/>
<feBlend mode="normal" in2="BackgroundImageFix" result="effect1_dropShadow"/>
<feBlend mode="normal" in="SourceGraphic" in2="effect1_dropShadow" result="shape"/>
</filter>
</defs>
</svg>
