<svg width="59" height="59" viewBox="0 0 59 59" fill="none" xmlns="http://www.w3.org/2000/svg">
<circle cx="29.5" cy="29.5" r="29.5" fill="white"/>
<path d="M30.0001 27.3489C32.1971 27.3489 33.9844 25.5615 33.9844 23.3645C33.9844 21.1675 32.1971 19.3801 30.0001 19.3801C27.8031 19.3801 26.0156 21.1675 26.0156 23.3645C26.0156 25.5615 27.8031 27.3489 30.0001 27.3489ZM30.0001 21.3723C31.0986 21.3723 31.9922 22.266 31.9922 23.3645C31.9922 24.463 31.0986 25.3567 30.0001 25.3567C28.9016 25.3567 28.0078 24.463 28.0078 23.3645C28.0078 22.266 28.9016 21.3723 30.0001 21.3723Z" fill="#65C466"/>
<path d="M42.6741 33.9102H36.0075C39.1204 30.9388 41.9528 28.0262 41.9528 22.9531C41.9528 16.1178 36.8203 11 29.9998 11C23.1656 11 18.0466 16.133 18.0466 22.9531C18.0466 28.0262 20.8791 30.9388 23.9921 33.9102H17.3253L13.6826 45H46.3168L42.6741 33.9102ZM20.0388 22.9531C20.0388 17.1814 24.228 12.9922 29.9998 12.9922C35.7715 12.9922 39.9606 17.1814 39.9606 22.9531C39.9606 29.4103 34.5103 31.6974 29.9998 37.2586C28.6443 35.5874 27.1947 34.2079 25.785 32.8667C22.5745 29.812 20.0388 27.3991 20.0388 22.9531ZM17.241 40.5508H24.4216V38.5586H17.8954L18.7679 35.9023H26.0153V35.8576C28.6613 38.4815 29.3772 39.7966 29.9998 40.5808C30.6379 39.7771 31.3303 38.4894 33.9841 35.8577V35.9023H41.2316L42.1041 38.5586H35.5778V40.5508H42.7584L43.5654 43.0078H16.434L17.241 40.5508Z" fill="#65C466"/>
</svg>
