<svg width="41" height="42" viewBox="0 0 41 42" fill="none" xmlns="http://www.w3.org/2000/svg">
<path d="M20.3671 41.0332C31.4711 41.0332 40.4727 32.0317 40.4727 20.9277C40.4727 9.82373 31.4711 0.822177 20.3671 0.822176C9.26318 0.822175 0.261634 9.82372 0.261633 20.9277C0.261632 32.0317 9.2631 41.0332 20.3671 41.0332ZM10.6838 19.9665C10.7172 19.9294 10.7526 19.894 10.7897 19.8606L25.1508 6.93563C25.7506 6.4167 26.6576 6.48216 27.1765 7.08196C27.681 7.6651 27.635 8.5425 27.0723 9.06968L13.8974 20.9276L27.0723 32.7856C27.6512 33.3279 27.6808 34.2366 27.1385 34.8155C26.6114 35.3782 25.7339 35.4242 25.1508 34.9197L10.7897 21.9947C10.2004 21.4639 10.153 20.5558 10.6838 19.9665Z" fill="#65C466"/>
</svg>
