<svg width="59" height="59" viewBox="0 0 59 59" fill="none" xmlns="http://www.w3.org/2000/svg">
<circle cx="29.5" cy="29.5" r="29.5" fill="white"/>
<path d="M19.4201 36.8594C17.1935 36.8594 15.3828 38.6701 15.3828 40.8967C15.3828 43.1232 17.1935 44.9339 19.4201 44.9339C21.6467 44.9339 23.4574 43.1232 23.4574 40.8967C23.4574 38.6701 21.6466 36.8594 19.4201 36.8594ZM19.4201 43.5881C17.9357 43.5881 16.7286 42.381 16.7286 40.8967C16.7286 39.4122 17.9358 38.2052 19.4201 38.2052C20.9044 38.2052 22.1116 39.4123 22.1116 40.8967C22.1116 42.381 20.9044 43.5881 19.4201 43.5881Z" fill="#65C466"/>
<path d="M42.298 36.8594C40.0714 36.8594 38.2607 38.6701 38.2607 40.8967C38.2607 43.1232 40.0714 44.9339 42.298 44.9339C44.5246 44.9339 46.3353 43.1232 46.3353 40.8967C46.3353 38.6701 44.5246 36.8594 42.298 36.8594ZM42.298 43.5881C40.8136 43.5881 39.6065 42.381 39.6065 40.8967C39.6065 39.4122 40.8137 38.2052 42.298 38.2052C43.7824 38.2052 44.9895 39.4123 44.9895 40.8967C44.9895 42.381 43.7824 43.5881 42.298 43.5881Z" fill="#65C466"/>
<path d="M50.2656 33.1311L44.2097 23.7107C44.0859 23.5182 43.8726 23.4019 43.6438 23.4019H36.2422C35.8701 23.4019 35.5693 23.7033 35.5693 24.0747V40.8967C35.5693 41.2688 35.8701 41.5695 36.2422 41.5695H38.9337V40.2237H36.915V24.7476H43.2764L49.0269 33.6929V40.2239H45.6624V41.5696H49.6997C50.0718 41.5696 50.3726 41.2688 50.3726 40.8967V33.495C50.3727 33.3665 50.3357 33.2393 50.2656 33.1311Z" fill="#65C466"/>
<path d="M39.6064 32.1492V27.439H44.9895V26.0933H38.9336C38.5615 26.0933 38.2607 26.3947 38.2607 26.7661V32.822C38.2607 33.1941 38.5615 33.4949 38.9336 33.4949H49.0268V32.1491H39.6064V32.1492Z" fill="#65C466"/>
<path d="M36.2423 18.7178H10.6729C10.3015 18.7178 10 19.0192 10 19.3906V40.9228C10 41.2949 10.3015 41.5956 10.6729 41.5956H16.0559V40.2499H11.3458V20.0635H35.5694V40.2499H22.7847V41.5956H36.2423C36.6144 41.5956 36.9151 41.2949 36.9151 40.9228V19.3906C36.9151 19.0192 36.6144 18.7178 36.2423 18.7178Z" fill="#65C466"/>
<path d="M14.7101 37.532H10.6729V38.8778H14.7101V37.532Z" fill="#65C466"/>
<path d="M35.5698 37.532H24.1309V38.8778H35.5698V37.532Z" fill="#65C466"/>
<path d="M49.7003 37.532H47.0088V38.8778H49.7003V37.532Z" fill="#65C466"/>
<path d="M36.2422 21.3831H12.6914V22.7288H36.2422V21.3831Z" fill="#65C466"/>
<path d="M20.0938 40.2234H18.748V41.5692H20.0938V40.2234Z" fill="#65C466"/>
<path d="M42.9708 40.2234H41.625V41.5692H42.9708V40.2234Z" fill="#65C466"/>
<path d="M22.1117 16H12.6914V17.3458H22.1117V16Z" fill="#65C466"/>
<path d="M11.3458 16H10V17.3458H11.3458V16Z" fill="#65C466"/>
</svg>
