<svg width="99" height="99" viewBox="0 0 99 99" fill="none" xmlns="http://www.w3.org/2000/svg">
<g filter="url(#filter0_d)">
<circle cx="49.5" cy="49.5" r="29.5" fill="white"/>
</g>
<path d="M39.4201 56.8594C37.1935 56.8594 35.3828 58.6701 35.3828 60.8967C35.3828 63.1232 37.1935 64.9339 39.4201 64.9339C41.6467 64.9339 43.4574 63.1232 43.4574 60.8967C43.4574 58.6701 41.6466 56.8594 39.4201 56.8594ZM39.4201 63.5881C37.9357 63.5881 36.7286 62.381 36.7286 60.8967C36.7286 59.4122 37.9358 58.2052 39.4201 58.2052C40.9044 58.2052 42.1116 59.4123 42.1116 60.8967C42.1116 62.381 40.9044 63.5881 39.4201 63.5881Z" fill="#65C466"/>
<path d="M62.298 56.8594C60.0714 56.8594 58.2607 58.6701 58.2607 60.8967C58.2607 63.1232 60.0714 64.9339 62.298 64.9339C64.5246 64.9339 66.3353 63.1232 66.3353 60.8967C66.3353 58.6701 64.5246 56.8594 62.298 56.8594ZM62.298 63.5881C60.8136 63.5881 59.6065 62.381 59.6065 60.8967C59.6065 59.4122 60.8137 58.2052 62.298 58.2052C63.7824 58.2052 64.9895 59.4123 64.9895 60.8967C64.9895 62.381 63.7824 63.5881 62.298 63.5881Z" fill="#65C466"/>
<path d="M70.2656 53.1311L64.2097 43.7107C64.0859 43.5182 63.8726 43.4019 63.6438 43.4019H56.2422C55.8701 43.4019 55.5693 43.7033 55.5693 44.0747V60.8967C55.5693 61.2688 55.8701 61.5695 56.2422 61.5695H58.9337V60.2237H56.915V44.7476H63.2764L69.0269 53.6929V60.2239H65.6624V61.5696H69.6997C70.0718 61.5696 70.3726 61.2688 70.3726 60.8967V53.495C70.3727 53.3665 70.3357 53.2393 70.2656 53.1311Z" fill="#65C466"/>
<path d="M59.6064 52.1492V47.439H64.9895V46.0933H58.9336C58.5615 46.0933 58.2607 46.3947 58.2607 46.7661V52.822C58.2607 53.1941 58.5615 53.4949 58.9336 53.4949H69.0268V52.1491H59.6064V52.1492Z" fill="#65C466"/>
<path d="M56.2423 38.7178H30.6729C30.3015 38.7178 30 39.0192 30 39.3906V60.9228C30 61.2949 30.3015 61.5956 30.6729 61.5956H36.0559V60.2499H31.3458V40.0635H55.5694V60.2499H42.7847V61.5956H56.2423C56.6144 61.5956 56.9151 61.2949 56.9151 60.9228V39.3906C56.9151 39.0192 56.6144 38.7178 56.2423 38.7178Z" fill="#65C466"/>
<path d="M34.7101 57.532H30.6729V58.8778H34.7101V57.532Z" fill="#65C466"/>
<path d="M55.5698 57.532H44.1309V58.8778H55.5698V57.532Z" fill="#65C466"/>
<path d="M69.7003 57.532H67.0088V58.8778H69.7003V57.532Z" fill="#65C466"/>
<path d="M56.2422 41.3831H32.6914V42.7288H56.2422V41.3831Z" fill="#65C466"/>
<path d="M40.0938 60.2234H38.748V61.5692H40.0938V60.2234Z" fill="#65C466"/>
<path d="M62.9708 60.2234H61.625V61.5692H62.9708V60.2234Z" fill="#65C466"/>
<path d="M42.1117 36H32.6914V37.3458H42.1117V36Z" fill="#65C466"/>
<path d="M31.3458 36H30V37.3458H31.3458V36Z" fill="#65C466"/>
<defs>
<filter id="filter0_d" x="0" y="0" width="99" height="99" filterUnits="userSpaceOnUse" color-interpolation-filters="sRGB">
<feFlood flood-opacity="0" result="BackgroundImageFix"/>
<feColorMatrix in="SourceAlpha" type="matrix" values="0 0 0 0 0 0 0 0 0 0 0 0 0 0 0 0 0 0 127 0" result="hardAlpha"/>
<feOffset/>
<feGaussianBlur stdDeviation="10"/>
<feColorMatrix type="matrix" values="0 0 0 0 0.870833 0 0 0 0 0.870833 0 0 0 0 0.870833 0 0 0 1 0"/>
<feBlend mode="normal" in2="BackgroundImageFix" result="effect1_dropShadow"/>
<feBlend mode="normal" in="SourceGraphic" in2="effect1_dropShadow" result="shape"/>
</filter>
</defs>
</svg>
